{"title":"K 11 2012 BRRip 720p x264 AAC - PRiSTiNE [P2PDL]","uid":8721669,"size":563733296,"categoryP":"video","categoryS":"hd___movies","magnet":"?xt=urn:btih:1e58190c9beefdbe2671842e5eef503e81008a43&amp;dn=K+11+2012+BRRip+720p+x264+AAC+-+PRiSTiNE+%5BP2PDL%5D&amp;tr=udp%3A%2F%2Ftracker.openbittorrent.com%3A80&amp;tr=udp%3A%2F%2Fopen.demonii.com%3A1337&amp;tr=udp%3A%2F%2Ftracker.coppersurfer.tk%3A6969&amp;tr=udp%3A%2F%2Fexodus.desync.com%3A6969","seeders":0,"leechers":1,"uploader":"ValidusVyto","files":-1,"time":1374432569,"description":"_______ Visit us at our Semi Public Bittorrent Community ________\n  &lt;a href=&quot;\nhttp://p2pdl.com&quot; rel=&quot;nofollow&quot; target=&quot;_NEW&quot;&gt;\nhttp://p2pdl.com&lt;/a&gt;  _____________________________ &lt;a href=&quot; http://p2pdl.com&quot; rel=&quot;nofollow&quot; target=&quot;_NEW&quot;&gt; http://p2pdl.com&lt;/a&gt;\n\n\nK 11 2012 BRRip 720p x264 AAC - PRiSTiNE\n\n\nGenre: Drama  \nPlot: A record producer comes around after binging on drink and drugs. He finds\nhimself in a section of the Los Angeles County Jail reserved for homosexuals, which\nis ruled by a transsexual named Mousey. \nDirector: Jules Stewart\nStars: Goran Visnjic, Kate del Castillo, D.B. Sweeney.\nRated: N/a\n\n\nIMDb: &lt;a href=&quot;\nhttp://www.imdb.com/title/tt1329177/&quot; rel=&quot;nofollow&quot; target=&quot;_NEW&quot;&gt;\nhttp://www.imdb.com/title/tt1329177/&lt;/a&gt;\n\nTrailer:\n\n\nFormat                         : MPEG-4\nFile size                      : 530 MiB\nDuration                       : 1h 28mn\nOverall bit rate               : 841 Kbps\nSource                         : 720p.BluRay.x264-PFa\n\nVideo\nFormat                         : AVC\nBit rate                       : 759 Kbps\nWidth                          : 1 280 pixels\nHeight                         : 704 pixels\nDisplay aspect ratio           : 16:9\nFrame rate mode                : Constant\nFrame rate                     : 23.976 fps\nStream size                    : 478 MiB (90%)\nWriting library                : x264 core 130 r2273\n\nAudio\nFormat                         : AAC\nBit rate mode                  : Variable\nBit rate                       : 79.9 Kbps\nChannel(s)                     : 2 channels\nChannel positions              : Front: L R\nSampling rate                  : 48.0 KHz\nStream size                    : 50.4 MiB (10%)\nLanguage                       : English\n\nSubtitle                       : N/a\n &lt;a href=&quot;\nhttp://someimage.com/VoBtB5D&quot; rel=&quot;nofollow&quot; target=&quot;_NEW&quot;&gt;\nhttp://someimage.com/VoBtB5D&lt;/a&gt; &lt;a href=&quot;\nhttp://someimage.com/ajsSc4g&quot; rel=&quot;nofollow&quot; target=&quot;_NEW&quot;&gt;\nhttp://someimage.com/ajsSc4g&lt;/a&gt; &lt;a href=&quot;\nhttp://someimage.com/a3wolzl&quot; rel=&quot;nofollow&quot; target=&quot;_NEW&quot;&gt;\nhttp://someimage.com/a3wolzl&lt;/a&gt; &lt;a href=&quot;\nhttp://someimage.com/OmUPVVi&quot; rel=&quot;nofollow&quot; target=&quot;_NEW&quot;&gt;\nhttp://someimage.com/OmUPVVi&lt;/a&gt; &lt;a href=&quot;\nhttp://someimage.com/p3wbiXu&quot; rel=&quot;nofollow&quot; target=&quot;_NEW&quot;&gt;\nhttp://someimage.com/p3wbiXu&lt;/a&gt; &lt;a href=&quot;\nhttp://someimage.com/JSXK2gs&quot; rel=&quot;nofollow&quot; target=&quot;_NEW&quot;&gt;\nhttp://someimage.com/JSXK2gs&lt;/a&gt;\n\n----------------------------------------------------------------------------------------------------\n\n\nEncoded using revolutionary 10bit encoding, which enables us to provide you more crispier \nand sharper images at small sizes, just make sure you follow our instructions without a fault.\nRecommend to you to use latest version of VLC player. Install K-Lite Codec Pack or shark007 codecs\nin case of any kind of problem in playback (For non-VLC Media Player users). Alternatively, install\nCore AVC codecs, the fastest decoder that there is coupled with Community Center Codec Pack and play\non Windows Media Player Classic. Check sample to be sure.\nEnjoy!\n\nEncoder Notes:Looking For Early Access To Anything You Can Provide DVDScr, R5, DVDR, BluRay, Direct\nAudio, Music Releases and Seedboxes. We require dedicated servers, so as to do more \nand fast releases of movies.\nIf You Got anything to offer please contact us at &quot;&lt;a class=&quot;__cf_email__&quot; href=&quot;/cdn-cgi/l/email-protection&quot; data-cfemail=&quot;9bebe9fcdbf3eee8f3b5f8f4f6&quot;&gt;[email&amp;#160;protected]&lt;/a&gt;&lt;script cf-hash='f9e31' type=&quot;text/javascript&quot;&gt;\n/* &lt;![CDATA[ */!function(){try{var t=&quot;currentScript&quot;in document?document.currentScript:function(){for(var t=document.getElementsByTagName(&quot;script&quot;),e=t.length;e--;)if(t[e].getAttribute(&quot;cf-hash&quot;))return t[e]}();if(t&amp;&amp;t.previousSibling){var e,r,n,i,c=t.previousSibling,a=c.getAttribute(&quot;data-cfemail&quot;);if(a){for(e=&quot;&quot;,r=parseInt(a.substr(0,2),16),n=2;a.length-n;n+=2)i=parseInt(a.substr(n,2),16)^r,e+=String.fromCharCode(i);e=document.createTextNode(e),c.parentNode.replaceChild(e,c)}}}catch(u){}}();/* ]]&gt; */&lt;/script&gt;&quot;.\n\nFace book Fan Page:  \n","torrent":{"xt":"urn:btih:1e58190c9beefdbe2671842e5eef503e81008a43","amp;dn":"K+11+2012+BRRip+720p+x264+AAC+-+PRiSTiNE+%5BP2PDL%5D","amp;tr":["udp%3A%2F%2Ftracker.openbittorrent.com%3A80","udp%3A%2F%2Fopen.demonii.com%3A1337","udp%3A%2F%2Ftracker.coppersurfer.tk%3A6969","udp%3A%2F%2Fexodus.desync.com%3A6969"],"infoHash":"1e58190c9beefdbe2671842e5eef503e81008a43","infoHashBuffer":{"type":"Buffer","data":[30,88,25,12,155,238,253,190,38,113,132,46,94,239,80,62,129,0,138,67]},"announce":[],"urlList":[]}}